<svg xmlns="http://www.w3.org/2000/svg" width="800" height="400" viewBox="0 0 800 400">
  <defs>
    <linearGradient id="nbg" x1="0%" y1="0%" x2="0%" y2="100%">
      <stop offset="0%" style="stop-color:#0a0a1a;stop-opacity:1" />
      <stop offset="50%" style="stop-color:#0d0d2b;stop-opacity:1" />
      <stop offset="100%" style="stop-color:#0a0a1a;stop-opacity:1" />
    </linearGradient>
    <radialGradient id="ng1" cx="30%" cy="40%" r="40%">
      <stop offset="0%" style="stop-color:#7c3aed;stop-opacity:0.08" />
      <stop offset="100%" style="stop-color:#7c3aed;stop-opacity:0" />
    </radialGradient>
    <radialGradient id="ng2" cx="70%" cy="60%" r="40%">
      <stop offset="0%" style="stop-color:#06b6d4;stop-opacity:0.08" />
      <stop offset="100%" style="stop-color:#06b6d4;stop-opacity:0" />
    </radialGradient>
  </defs>
  <rect width="800" height="400" fill="url(#nbg)"/>
  <rect width="800" height="400" fill="url(#ng1)"/>
  <rect width="800" height="400" fill="url(#ng2)"/>
  <!-- Hex grid pattern -->
  <g opacity="0.06" stroke="#06b6d4" stroke-width="0.5" fill="none">
    <path d="M100,20 L115,30 L115,50 L100,60 L85,50 L85,30 Z"/>
    <path d="M130,20 L145,30 L145,50 L130,60 L115,50 L115,30 Z"/>
    <path d="M160,20 L175,30 L175,50 L160,60 L145,50 L145,30 Z"/>
    <path d="M190,20 L205,30 L205,50 L190,60 L175,50 L175,30 Z"/>
    <path d="M220,20 L235,30 L235,50 L220,60 L205,50 L205,30 Z"/>
    <path d="M115,50 L130,60 L130,80 L115,90 L100,80 L100,60 Z"/>
    <path d="M145,50 L160,60 L160,80 L145,90 L130,80 L130,60 Z"/>
    <path d="M175,50 L190,60 L190,80 L175,90 L160,80 L160,60 Z"/>
    <path d="M205,50 L220,60 L220,80 L205,90 L190,80 L190,60 Z"/>
    <path d="M100,80 L115,90 L115,110 L100,120 L85,110 L85,90 Z"/>
    <path d="M130,80 L145,90 L145,110 L130,120 L115,110 L115,90 Z"/>
    <path d="M160,80 L175,90 L175,110 L160,120 L145,110 L145,90 Z"/>
  </g>
  <!-- Data streams -->
  <g opacity="0.08" stroke="#7c3aed" stroke-width="0.6" fill="none">
    <path d="M300,100 L300,80 L400,80 L400,120 L500,120 L500,100 L600,100"/>
    <path d="M350,200 L350,180 L450,180 L450,220 L550,220 L550,200 L650,200"/>
    <path d="M300,300 L300,280 L380,280 L380,320 L480,320 L480,300 L600,300"/>
  </g>
  <!-- Binary/data dots -->
  <g opacity="0.06" fill="#06b6d4">
    <rect x="400" y="160" width="4" height="4"/>
    <rect x="408" y="150" width="4" height="4"/>
    <rect x="416" y="162" width="4" height="4"/>
    <rect x="424" y="148" width="4" height="4"/>
    <rect x="432" y="158" width="4" height="4"/>
    <rect x="440" y="155" width="4" height="4"/>
    <rect x="448" y="165" width="4" height="4"/>
  </g>
</svg>
